# xmcd
#
# Track frame offsets:
#	150
#	17692
#	27045
#	52415
#	63367
#	76610
#	93190
#	106700
#	128135
#	153725
#	179022
#	191455
#	224787
#	248657
#	265055
#	282692
#	301030
#
# Disc length: 4284 seconds
# Revision: 0
# Processed by: cddbd v1.5.2PL0 Copyright (c) Steve Scherf et al.
# Submitted via: dBpowerAMP V12.0
#
DISCID=e910ba11
DTITLE=Steve Earle - The art of zen mandolin - Unplugged in Copenhagen [Disc 2]
DYEAR=1999
DGENRE=Country
TTITLE0=Johnny Come Lately
TTITLE1=Intro
TTITLE2=Ellis Unit One
TTITLE3=Guitar Town
TTITLE4=I Aint Ever Satisfied
TTITLE5=Now She's Gone
TTITLE6=Valentines Day
TTITLE7=Baby, Let Me Follow You Down
TTITLE8=Angry Young Man
TTITLE9=Even When I'm Blue
TTITLE10=So Different Blues
TTITLE11=Starter Won't Start
TTITLE12=Copperhead Road
TTITLE13=Fearless Heart
TTITLE14=No. 29
TTITLE15=Sweet Little '66
TTITLE16=Nothing But a Child
EXTD=
EXTT0=
EXTT1=
EXTT2=
EXTT3=
EXTT4=
EXTT5=
EXTT6=
EXTT7=
EXTT8=
EXTT9=
EXTT10=
EXTT11=
EXTT12=
EXTT13=
EXTT14=
EXTT15=
EXTT16=
PLAYORDER=
